<svg xmlns="http://www.w3.org/2000/svg" width="186" height="36" viewBox="0 0 186 36" role="img" aria-label="Discord: @felixthedev">
<title>Discord: @felixthedev</title>
<g font-family="'Segoe UI', 'Helvetica Neue', Helvetica, Arial, sans-serif">
<set attributeName="opacity" to="0" begin="0s" end="0.1s"/>
<animate attributeName="opacity" from="0" to="1" dur="0.5s" begin="0.1s" fill="freeze"/>
<rect x="0.5" y="0.5" width="185" height="35" rx="18" fill="#17132A" stroke="#2B2449"/>
<g transform="translate(12 10)"><path d="M13 3.7a11.6 11.6 0 0 0-2.9-.9l-.4.8a10.8 10.8 0 0 0-3.4 0l-.4-.8a11.6 11.6 0 0 0-2.9.9C1.2 6.4.7 9 1 11.6a11.7 11.7 0 0 0 3.6 1.8l.8-1.2c-.4-.2-.9-.4-1.3-.6l.3-.2a8.3 8.3 0 0 0 7.2 0l.3.2c-.4.2-.9.4-1.3.6l.8 1.2a11.7 11.7 0 0 0 3.6-1.8c.4-3-.5-5.6-2-7.9z" fill="#B39DFB"/><circle cx="5.9" cy="8.6" r="1.25" fill="#17132A"/><circle cx="10.1" cy="8.6" r="1.25" fill="#17132A"/></g>
<text x="36" y="23" font-size="14" font-weight="700" fill="#EDE9FE">Discord</text>
<text x="94" y="23" font-size="13" fill="#A89CD3">@felixthedev</text>
</g>
</svg>
