<svg xmlns="http://www.w3.org/2000/svg" width="900" height="240" viewBox="0 0 900 240" role="img" aria-label="588 Beiträge in den letzten 52 Wochen">
<title>588 Beiträge in den letzten 52 Wochen</title>
<defs>
<linearGradient id="area" x1="0" y1="0" x2="0" y2="1">
<stop offset="0" stop-color="#C4B5FD" stop-opacity="0.5"/>
<stop offset="1" stop-color="#C4B5FD" stop-opacity="0"/>
</linearGradient>
<linearGradient id="stroke" x1="0" y1="0" x2="1" y2="0">
<stop offset="0" stop-color="#B39DFB"/>
<stop offset="1" stop-color="#F0ABFC"/>
</linearGradient>
<clipPath id="reveal"><rect x="0" y="0" width="900" height="240"><set attributeName="width" to="0" begin="0s" end="0.2s"/><animate attributeName="width" from="0" to="900" dur="2.2s" begin="0.2s" fill="freeze" calcMode="spline" keyTimes="0;1" keySplines="0.3 0 0.2 1"/></rect></clipPath>
</defs>
<rect x="0.5" y="0.5" width="899" height="239" rx="24" fill="#17132A" stroke="#2B2449"/>
<g font-family="'Segoe UI', 'Helvetica Neue', Helvetica, Arial, sans-serif">
<text x="40" y="44" font-size="16" font-weight="700" fill="#EDE9FE">Beiträge in den letzten 52 Wochen</text>
<text x="40" y="64" font-size="13" fill="#A89CD3">21. September 2025 bis 21. September 2026</text>
<text x="860" y="54" font-size="34" font-weight="700" fill="#B39DFB" text-anchor="end">588</text>
<text x="71.5" y="222" font-size="12" fill="#A89CD3" text-anchor="middle">Okt</text>
<text x="134.6" y="222" font-size="12" fill="#A89CD3" text-anchor="middle">Nov</text>
<text x="213.5" y="222" font-size="12" fill="#A89CD3" text-anchor="middle">Dez</text>
<text x="276.5" y="222" font-size="12" fill="#A89CD3" text-anchor="middle">Jan</text>
<text x="339.6" y="222" font-size="12" fill="#A89CD3" text-anchor="middle">Feb</text>
<text x="402.7" y="222" font-size="12" fill="#A89CD3" text-anchor="middle">Mär</text>
<text x="481.5" y="222" font-size="12" fill="#A89CD3" text-anchor="middle">Apr</text>
<text x="544.6" y="222" font-size="12" fill="#A89CD3" text-anchor="middle">Mai</text>
<text x="623.5" y="222" font-size="12" fill="#A89CD3" text-anchor="middle">Jun</text>
<text x="686.5" y="222" font-size="12" fill="#A89CD3" text-anchor="middle">Jul</text>
<text x="749.6" y="222" font-size="12" fill="#A89CD3" text-anchor="middle">Aug</text>
<text x="828.5" y="222" font-size="12" fill="#A89CD3" text-anchor="middle">Sep</text>
</g>
<line x1="40" y1="194" x2="860" y2="194" stroke="#2B2449" stroke-width="1"/>
<g clip-path="url(#reveal)">
<path d="M40 194 C42.6 194.0 50.5 194.0 55.8 194 C61.0 194.0 66.3 194.0 71.5 194 C76.8 194.0 82.0 194.0 87.3 194 C92.6 194.0 97.8 194.0 103.1 194 C108.3 194.0 113.5 194.0 118.8 194 C124.0 194.0 129.3 194.0 134.6 194 C139.9 194.0 145.1 194.0 150.4 194 C155.7 194.0 160.9 194.0 166.2 194 C171.4 194.0 176.7 194.0 181.9 194 C187.2 194.0 192.4 194.0 197.7 194 C203.0 194.0 208.3 194.0 213.5 194 C218.8 193.7 223.9 192.2 229.2 192.2 C234.4 192.2 239.7 193.7 245 194 C250.3 194.0 255.6 194.0 260.8 194 C266.1 194.0 271.3 194.0 276.5 194 C281.8 194.0 287.0 194.0 292.3 194 C297.6 194.0 302.9 194.0 308.1 194 C313.4 194.0 318.6 194.0 323.8 194 C329.1 194.0 334.3 194.0 339.6 194 C344.9 193.7 350.1 192.2 355.4 192.2 C360.7 192.2 365.9 193.7 371.2 194 C376.4 194.0 381.6 194.0 386.9 194 C392.1 194.0 397.4 194.0 402.7 194 C408.0 194.0 413.3 194.0 418.5 194 C423.8 194.0 428.9 194.0 434.2 194 C439.4 194.0 444.7 194.0 450 194 C455.3 194.0 460.6 194.0 465.8 194 C471.1 194.0 476.3 194.0 481.5 194 C486.8 194.0 492.0 194.0 497.3 194 C502.6 194.0 507.9 194.0 513.1 194 C518.4 194.0 523.5 194.0 528.8 194 C534.0 194.0 539.3 194.0 544.6 194 C549.9 194.0 555.1 194.0 560.4 194 C565.7 194.0 571.0 194.0 576.2 194 C581.5 194.0 586.6 194.0 591.9 194 C597.1 194.0 602.4 194.0 607.7 194 C613.0 193.6 618.3 191.7 623.5 191.7 C628.8 191.7 634.0 193.6 639.2 194 C644.5 194.0 649.7 194.0 655 194 C660.3 194.0 665.5 194.0 670.8 194 C676.0 193.7 681.3 194.0 686.5 192.2 C691.8 188.7 697.0 178.3 702.3 173.1 C707.6 167.9 712.9 176.2 718.1 161.3 C723.4 146.5 728.5 84.0 733.8 84 C739.0 84.8 744.3 150.6 749.6 166.3 C754.9 182.0 760.1 175.0 765.4 178.1 C770.7 181.2 776.0 182.8 781.2 184.9 C786.5 187.0 791.6 190.0 796.9 190.4 C802.1 190.8 807.4 189.5 812.7 187.6 C818.0 185.7 823.3 179.3 828.5 179 C833.8 178.7 839.0 185.0 844.2 185.8 C849.5 186.6 857.4 184.3 860 184 L860 194 L40 194 Z" fill="url(#area)"/>
<path d="M40 194 C42.6 194.0 50.5 194.0 55.8 194 C61.0 194.0 66.3 194.0 71.5 194 C76.8 194.0 82.0 194.0 87.3 194 C92.6 194.0 97.8 194.0 103.1 194 C108.3 194.0 113.5 194.0 118.8 194 C124.0 194.0 129.3 194.0 134.6 194 C139.9 194.0 145.1 194.0 150.4 194 C155.7 194.0 160.9 194.0 166.2 194 C171.4 194.0 176.7 194.0 181.9 194 C187.2 194.0 192.4 194.0 197.7 194 C203.0 194.0 208.3 194.0 213.5 194 C218.8 193.7 223.9 192.2 229.2 192.2 C234.4 192.2 239.7 193.7 245 194 C250.3 194.0 255.6 194.0 260.8 194 C266.1 194.0 271.3 194.0 276.5 194 C281.8 194.0 287.0 194.0 292.3 194 C297.6 194.0 302.9 194.0 308.1 194 C313.4 194.0 318.6 194.0 323.8 194 C329.1 194.0 334.3 194.0 339.6 194 C344.9 193.7 350.1 192.2 355.4 192.2 C360.7 192.2 365.9 193.7 371.2 194 C376.4 194.0 381.6 194.0 386.9 194 C392.1 194.0 397.4 194.0 402.7 194 C408.0 194.0 413.3 194.0 418.5 194 C423.8 194.0 428.9 194.0 434.2 194 C439.4 194.0 444.7 194.0 450 194 C455.3 194.0 460.6 194.0 465.8 194 C471.1 194.0 476.3 194.0 481.5 194 C486.8 194.0 492.0 194.0 497.3 194 C502.6 194.0 507.9 194.0 513.1 194 C518.4 194.0 523.5 194.0 528.8 194 C534.0 194.0 539.3 194.0 544.6 194 C549.9 194.0 555.1 194.0 560.4 194 C565.7 194.0 571.0 194.0 576.2 194 C581.5 194.0 586.6 194.0 591.9 194 C597.1 194.0 602.4 194.0 607.7 194 C613.0 193.6 618.3 191.7 623.5 191.7 C628.8 191.7 634.0 193.6 639.2 194 C644.5 194.0 649.7 194.0 655 194 C660.3 194.0 665.5 194.0 670.8 194 C676.0 193.7 681.3 194.0 686.5 192.2 C691.8 188.7 697.0 178.3 702.3 173.1 C707.6 167.9 712.9 176.2 718.1 161.3 C723.4 146.5 728.5 84.0 733.8 84 C739.0 84.8 744.3 150.6 749.6 166.3 C754.9 182.0 760.1 175.0 765.4 178.1 C770.7 181.2 776.0 182.8 781.2 184.9 C786.5 187.0 791.6 190.0 796.9 190.4 C802.1 190.8 807.4 189.5 812.7 187.6 C818.0 185.7 823.3 179.3 828.5 179 C833.8 178.7 839.0 185.0 844.2 185.8 C849.5 186.6 857.4 184.3 860 184" fill="none" stroke="url(#stroke)" stroke-width="3" stroke-linecap="round" stroke-linejoin="round"/>
</g>
<circle cx="860" cy="184" r="6" fill="#F0ABFC">
<set attributeName="opacity" to="0" begin="0s" end="2.3s"/>
<animate attributeName="opacity" from="0" to="1" dur="0.4s" begin="2.3s" fill="freeze"/>
<animate attributeName="r" values="6;10;6" dur="2.4s" begin="2.7s" repeatCount="indefinite" calcMode="spline" keyTimes="0;0.5;1" keySplines="0.4 0 0.6 1;0.4 0 0.6 1"/>
</circle>
<circle cx="860" cy="184" r="3" fill="#17132A">
<set attributeName="opacity" to="0" begin="0s" end="2.3s"/>
<animate attributeName="opacity" from="0" to="1" dur="0.4s" begin="2.3s" fill="freeze"/>
</circle>
</svg>
